<?xml version="1.0" encoding="UTF-8"?>
<svg width="24px" height="24px" viewBox="0 0 24 24" version="1.1" xmlns="http://www.w3.org/2000/svg" xmlns:xlink="http://www.w3.org/1999/xlink">
    <!-- Generator: Sketch 47.1 (45422) - http://www.bohemiancoding.com/sketch -->
    <title>vai</title>
    <desc>Created with Sketch.</desc>
    <defs></defs>
    <g id="Page-1" stroke="none" stroke-width="1" fill="none" fill-rule="evenodd">
        <g id="wiki-open-people" transform="translate(-59.000000, -24.000000)" fill-rule="nonzero" fill="#FBF9F9" fill-opacity="0.6">
            <g id="vai" transform="translate(59.000000, 24.000000)">
                <polygon id="Shape" points="9.01125 0.0448891827 14.9695833 0.0448891827 14.9695833 23.2174132 9.01125 23.2174132"></polygon>
                <path d="M0.455,22.9630412 L12.2525,0.0303305288 L12.5804167,0.0303305288 L23.5258333,22.9630412 L23.5258333,23.2813095 L17.5616667,23.2813095 L16.4475,20.6093921 L7.5,20.6093921 L6.32041667,23.2813095 L0.455,23.2813095 L0.455,22.9630412 Z M14.9725,16.6652102 L12.1541667,10.0814634 L12.12125,10.0814634 L9.07375,16.6652102 L14.9725,16.6652102 Z" id="Shape"></path>
                <polygon id="Shape" points="0 0.363966346 0 0.0404407051 5.79541667 0.0404407051 12.22375 13.1974197 12.2570833 13.1974197 18.5833333 0.0404407051 23.9791667 0.0404407051 23.9791667 0.363966346 12.2916667 23.2186264 11.9583333 23.2186264"></polygon>
            </g>
        </g>
    </g>
</svg>